<?xml version="1.0" encoding="utf-8" ?>
<svg baseProfile="full" height="512" version="1.1" width="512" xmlns="http://www.w3.org/2000/svg" xmlns:ev="http://www.w3.org/2001/xml-events" xmlns:xlink="http://www.w3.org/1999/xlink"><defs /><path d="M 235,213 L 234,214 L 221,214 L 220,215 L 216,215 L 215,216 L 211,216 L 210,217 L 206,217 L 205,218 L 202,218 L 201,219 L 199,219 L 198,220 L 196,220 L 195,221 L 193,221 L 192,222 L 190,222 L 189,223 L 188,223 L 187,224 L 186,224 L 185,225 L 184,225 L 183,226 L 182,226 L 181,227 L 180,227 L 179,228 L 178,228 L 177,229 L 176,229 L 175,230 L 174,230 L 172,232 L 171,232 L 169,234 L 168,234 L 167,235 L 166,235 L 164,237 L 163,237 L 158,242 L 157,242 L 153,246 L 152,246 L 150,248 L 150,249 L 140,259 L 140,260 L 136,264 L 136,265 L 134,267 L 134,268 L 132,270 L 132,271 L 130,273 L 130,274 L 128,276 L 128,277 L 126,279 L 126,280 L 125,281 L 125,282 L 123,284 L 123,285 L 121,287 L 121,288 L 119,290 L 119,291 L 118,292 L 118,293 L 116,295 L 116,296 L 114,298 L 114,299 L 112,301 L 112,302 L 110,304 L 110,305 L 109,306 L 109,307 L 107,309 L 107,310 L 105,312 L 105,313 L 103,315 L 103,316 L 101,318 L 101,319 L 100,320 L 100,321 L 98,323 L 98,324 L 96,326 L 96,327 L 94,329 L 94,330 L 93,331 L 93,332 L 91,334 L 91,335 L 89,337 L 89,338 L 87,340 L 87,341 L 85,343 L 85,344 L 84,345 L 84,346 L 82,348 L 82,349 L 80,351 L 80,352 L 78,354 L 78,355 L 76,357 L 76,358 L 75,359 L 75,360 L 74,361 L 74,362 L 73,363 L 73,364 L 72,365 L 72,366 L 71,367 L 71,368 L 70,369 L 70,370 L 69,371 L 69,373 L 68,374 L 68,376 L 67,377 L 67,379 L 66,380 L 66,384 L 65,385 L 65,390 L 64,391 L 64,408 L 65,409 L 65,415 L 66,416 L 66,420 L 67,421 L 67,423 L 68,424 L 68,426 L 69,427 L 69,429 L 70,430 L 70,431 L 71,432 L 71,434 L 72,435 L 72,436 L 74,438 L 74,439 L 75,440 L 75,441 L 76,442 L 76,443 L 78,445 L 78,446 L 82,450 L 82,451 L 92,461 L 93,461 L 97,465 L 98,465 L 100,467 L 101,467 L 102,468 L 103,468 L 104,469 L 105,469 L 107,471 L 109,471 L 110,472 L 111,472 L 112,473 L 113,473 L 114,474 L 116,474 L 117,475 L 119,475 L 120,476 L 123,476 L 124,477 L 127,477 L 128,478 L 134,478 L 135,479 L 151,479 L 152,478 L 158,478 L 159,477 L 162,477 L 163,476 L 166,476 L 167,475 L 169,475 L 170,474 L 171,474 L 172,473 L 174,473 L 175,472 L 176,472 L 177,471 L 179,471 L 180,470 L 182,470 L 183,469 L 184,469 L 185,468 L 187,468 L 188,467 L 190,467 L 191,466 L 194,466 L 195,465 L 197,465 L 198,464 L 201,464 L 202,463 L 205,463 L 206,462 L 211,462 L 212,461 L 218,461 L 219,460 L 231,460 L 232,459 L 242,459 L 243,460 L 255,460 L 256,461 L 261,461 L 262,462 L 268,462 L 269,463 L 272,463 L 273,464 L 275,464 L 276,465 L 279,465 L 280,466 L 283,466 L 284,467 L 286,467 L 287,468 L 288,468 L 289,469 L 291,469 L 292,470 L 294,470 L 295,471 L 296,471 L 297,472 L 299,472 L 300,473 L 302,473 L 303,474 L 304,474 L 305,475 L 307,475 L 308,476 L 311,476 L 312,477 L 315,477 L 316,478 L 322,478 L 323,479 L 339,479 L 340,478 L 345,478 L 346,477 L 350,477 L 351,476 L 354,476 L 355,475 L 357,475 L 358,474 L 360,474 L 361,473 L 362,473 L 363,472 L 364,472 L 365,471 L 366,471 L 367,470 L 368,470 L 369,469 L 370,469 L 371,468 L 372,468 L 374,466 L 375,466 L 377,464 L 378,464 L 381,461 L 382,461 L 392,451 L 392,450 L 395,447 L 395,446 L 397,444 L 397,443 L 399,441 L 399,440 L 400,439 L 400,438 L 401,437 L 401,436 L 402,435 L 402,434 L 403,433 L 403,432 L 404,431 L 404,429 L 405,428 L 405,427 L 406,426 L 406,424 L 407,423 L 407,420 L 408,419 L 408,415 L 409,414 L 409,408 L 410,407 L 410,393 L 409,392 L 409,386 L 408,385 L 408,381 L 407,380 L 407,377 L 406,376 L 406,374 L 405,373 L 405,372 L 404,371 L 404,369 L 403,368 L 403,367 L 402,366 L 402,365 L 401,364 L 401,363 L 400,362 L 400,361 L 399,360 L 399,359 L 397,357 L 397,356 L 395,354 L 395,353 L 394,352 L 394,351 L 392,349 L 392,348 L 390,346 L 390,345 L 388,343 L 388,342 L 386,340 L 386,339 L 385,338 L 385,337 L 383,335 L 383,334 L 381,332 L 381,331 L 379,329 L 379,328 L 377,326 L 377,325 L 376,324 L 376,323 L 374,321 L 374,320 L 372,318 L 372,317 L 370,315 L 370,314 L 369,313 L 369,312 L 367,310 L 367,309 L 365,307 L 365,306 L 363,304 L 363,303 L 361,301 L 361,300 L 360,299 L 360,298 L 358,296 L 358,295 L 356,293 L 356,292 L 354,290 L 354,289 L 352,287 L 352,286 L 351,285 L 351,284 L 349,282 L 349,281 L 347,279 L 347,278 L 345,276 L 345,275 L 344,274 L 344,273 L 342,271 L 342,270 L 340,268 L 340,267 L 337,264 L 337,263 L 334,260 L 334,259 L 317,242 L 316,242 L 312,238 L 311,238 L 309,236 L 308,236 L 306,234 L 305,234 L 303,232 L 302,232 L 300,230 L 299,230 L 298,229 L 297,229 L 296,228 L 295,228 L 294,227 L 293,227 L 292,226 L 291,226 L 290,225 L 289,225 L 288,224 L 287,224 L 286,223 L 284,223 L 283,222 L 282,222 L 281,221 L 279,221 L 278,220 L 276,220 L 275,219 L 272,219 L 271,218 L 269,218 L 268,217 L 264,217 L 263,216 L 259,216 L 258,215 L 254,215 L 253,214 L 239,214 L 238,213 Z" fill="#223D55" /><path d="M 442,203 L 441,204 L 437,204 L 436,205 L 433,205 L 432,206 L 430,206 L 429,207 L 427,207 L 426,208 L 424,208 L 423,209 L 422,209 L 421,210 L 420,210 L 419,211 L 418,211 L 416,213 L 415,213 L 414,214 L 413,214 L 411,216 L 410,216 L 407,219 L 406,219 L 394,231 L 394,232 L 391,235 L 391,236 L 389,238 L 389,239 L 387,241 L 387,242 L 386,243 L 386,244 L 385,245 L 385,246 L 384,247 L 384,248 L 383,249 L 383,250 L 382,251 L 382,253 L 381,254 L 381,255 L 380,256 L 380,258 L 379,259 L 379,262 L 378,263 L 378,267 L 377,268 L 377,275 L 376,276 L 376,287 L 377,288 L 377,294 L 378,295 L 378,298 L 379,299 L 379,302 L 380,303 L 380,305 L 381,306 L 381,307 L 382,308 L 382,309 L 383,310 L 383,312 L 385,314 L 385,315 L 386,316 L 386,317 L 389,320 L 389,321 L 399,331 L 400,331 L 402,333 L 403,333 L 405,335 L 406,335 L 407,336 L 408,336 L 409,337 L 410,337 L 411,338 L 413,338 L 414,339 L 415,339 L 416,340 L 418,340 L 419,341 L 423,341 L 424,342 L 430,342 L 431,343 L 441,343 L 442,342 L 448,342 L 449,341 L 453,341 L 454,340 L 456,340 L 457,339 L 459,339 L 460,338 L 462,338 L 463,337 L 464,337 L 465,336 L 466,336 L 467,335 L 468,335 L 469,334 L 470,334 L 471,333 L 472,333 L 474,331 L 475,331 L 476,330 L 477,330 L 480,327 L 481,327 L 494,314 L 494,313 L 497,310 L 497,309 L 499,307 L 499,306 L 501,304 L 501,303 L 502,302 L 502,301 L 503,300 L 503,299 L 504,298 L 504,297 L 505,296 L 505,295 L 506,294 L 506,292 L 507,291 L 507,289 L 508,288 L 508,286 L 509,285 L 509,282 L 510,281 L 510,277 L 511,276 L 511,253 L 510,252 L 510,248 L 509,247 L 509,244 L 508,243 L 508,242 L 507,241 L 507,239 L 506,238 L 506,237 L 505,236 L 505,234 L 503,232 L 503,231 L 502,230 L 502,229 L 500,227 L 500,226 L 496,222 L 496,221 L 492,217 L 491,217 L 487,213 L 486,213 L 484,211 L 483,211 L 482,210 L 481,210 L 480,209 L 479,209 L 478,208 L 477,208 L 476,207 L 474,207 L 473,206 L 472,206 L 471,205 L 468,205 L 467,204 L 463,204 L 462,203 Z" fill="#223D55" /><path d="M 57,130 L 56,131 L 49,131 L 48,132 L 45,132 L 44,133 L 42,133 L 41,134 L 39,134 L 38,135 L 36,135 L 35,136 L 34,136 L 33,137 L 32,137 L 30,139 L 29,139 L 28,140 L 27,140 L 24,143 L 23,143 L 14,152 L 14,153 L 11,156 L 11,157 L 10,158 L 10,159 L 8,161 L 8,162 L 7,163 L 7,164 L 6,165 L 6,166 L 5,167 L 5,169 L 4,170 L 4,172 L 3,173 L 3,175 L 2,176 L 2,179 L 1,180 L 1,184 L 0,185 L 0,208 L 1,209 L 1,214 L 2,215 L 2,218 L 3,219 L 3,221 L 4,222 L 4,224 L 5,225 L 5,227 L 6,228 L 6,229 L 7,230 L 7,231 L 8,232 L 8,233 L 9,234 L 9,235 L 10,236 L 10,237 L 11,238 L 11,239 L 13,241 L 13,242 L 15,244 L 15,245 L 19,249 L 19,250 L 26,257 L 27,257 L 32,262 L 33,262 L 35,264 L 36,264 L 37,265 L 38,265 L 40,267 L 41,267 L 42,268 L 44,268 L 45,269 L 46,269 L 47,270 L 48,270 L 49,271 L 51,271 L 52,272 L 55,272 L 56,273 L 59,273 L 60,274 L 69,274 L 70,275 L 71,275 L 72,274 L 81,274 L 82,273 L 86,273 L 87,272 L 89,272 L 90,271 L 92,271 L 93,270 L 94,270 L 95,269 L 96,269 L 97,268 L 98,268 L 99,267 L 100,267 L 101,266 L 102,266 L 104,264 L 105,264 L 110,259 L 111,259 L 114,256 L 114,255 L 118,251 L 118,250 L 120,248 L 120,247 L 121,246 L 121,245 L 123,243 L 123,242 L 124,241 L 124,240 L 125,239 L 125,237 L 126,236 L 126,235 L 127,234 L 127,231 L 128,230 L 128,228 L 129,227 L 129,223 L 130,222 L 130,216 L 131,215 L 131,202 L 130,201 L 130,194 L 129,193 L 129,190 L 128,189 L 128,186 L 127,185 L 127,183 L 126,182 L 126,180 L 125,179 L 125,178 L 124,177 L 124,175 L 123,174 L 123,173 L 122,172 L 122,171 L 121,170 L 121,169 L 120,168 L 120,167 L 118,165 L 118,164 L 116,162 L 116,161 L 113,158 L 113,157 L 101,145 L 100,145 L 97,142 L 96,142 L 94,140 L 93,140 L 92,139 L 91,139 L 90,138 L 89,138 L 88,137 L 87,137 L 86,136 L 85,136 L 84,135 L 82,135 L 81,134 L 80,134 L 79,133 L 76,133 L 75,132 L 72,132 L 71,131 L 62,131 L 61,130 Z" fill="#223D55" /><path d="M 350,72 L 349,73 L 344,73 L 343,74 L 341,74 L 340,75 L 338,75 L 337,76 L 335,76 L 334,77 L 333,77 L 332,78 L 330,78 L 328,80 L 327,80 L 326,81 L 325,81 L 324,82 L 323,82 L 321,84 L 320,84 L 318,86 L 317,86 L 313,90 L 312,90 L 306,96 L 306,97 L 301,102 L 301,103 L 299,105 L 299,106 L 297,108 L 297,109 L 296,110 L 296,111 L 294,113 L 294,114 L 293,115 L 293,116 L 292,117 L 292,118 L 291,119 L 291,121 L 290,122 L 290,123 L 289,124 L 289,126 L 288,127 L 288,129 L 287,130 L 287,133 L 286,134 L 286,137 L 285,138 L 285,143 L 284,144 L 284,166 L 285,167 L 285,172 L 286,173 L 286,176 L 287,177 L 287,180 L 288,181 L 288,183 L 289,184 L 289,185 L 290,186 L 290,188 L 291,189 L 291,190 L 292,191 L 292,192 L 293,193 L 293,194 L 295,196 L 295,197 L 296,198 L 296,199 L 299,202 L 299,203 L 305,209 L 305,210 L 306,210 L 311,215 L 312,215 L 314,217 L 315,217 L 317,219 L 318,219 L 319,220 L 320,220 L 321,221 L 322,221 L 323,222 L 325,222 L 326,223 L 327,223 L 328,224 L 330,224 L 331,225 L 335,225 L 336,226 L 341,226 L 342,227 L 356,227 L 357,226 L 362,226 L 363,225 L 365,225 L 366,224 L 369,224 L 370,223 L 372,223 L 373,222 L 374,222 L 375,221 L 376,221 L 377,220 L 378,220 L 379,219 L 381,219 L 383,217 L 384,217 L 386,215 L 387,215 L 389,213 L 390,213 L 394,209 L 395,209 L 403,201 L 403,200 L 407,196 L 407,195 L 409,193 L 409,192 L 411,190 L 411,189 L 412,188 L 412,187 L 414,185 L 414,184 L 415,183 L 415,181 L 416,180 L 416,179 L 417,178 L 417,176 L 418,175 L 418,174 L 419,173 L 419,171 L 420,170 L 420,168 L 421,167 L 421,164 L 422,163 L 422,159 L 423,158 L 423,152 L 424,151 L 424,136 L 423,135 L 423,129 L 422,128 L 422,124 L 421,123 L 421,120 L 420,119 L 420,117 L 419,116 L 419,114 L 418,113 L 418,112 L 417,111 L 417,110 L 416,109 L 416,108 L 415,107 L 415,106 L 414,105 L 414,104 L 413,103 L 413,102 L 411,100 L 411,99 L 408,96 L 408,95 L 398,85 L 397,85 L 394,82 L 393,82 L 391,80 L 390,80 L 389,79 L 388,79 L 387,78 L 386,78 L 385,77 L 383,77 L 382,76 L 381,76 L 380,75 L 378,75 L 377,74 L 374,74 L 373,73 L 369,73 L 368,72 Z" fill="#223D55" /><path d="M 188,32 L 187,33 L 183,33 L 182,34 L 180,34 L 179,35 L 177,35 L 176,36 L 174,36 L 173,37 L 172,37 L 171,38 L 170,38 L 169,39 L 168,39 L 167,40 L 166,40 L 165,41 L 164,41 L 163,42 L 162,42 L 159,45 L 158,45 L 155,48 L 154,48 L 145,57 L 145,58 L 141,62 L 141,63 L 139,65 L 139,66 L 137,68 L 137,69 L 136,70 L 136,71 L 135,72 L 135,73 L 134,74 L 134,75 L 133,76 L 133,77 L 132,78 L 132,79 L 131,80 L 131,81 L 130,82 L 130,84 L 129,85 L 129,87 L 128,88 L 128,90 L 127,91 L 127,94 L 126,95 L 126,99 L 125,100 L 125,106 L 124,107 L 124,127 L 125,128 L 125,135 L 126,136 L 126,139 L 127,140 L 127,143 L 128,144 L 128,146 L 129,147 L 129,149 L 130,150 L 130,152 L 131,153 L 131,154 L 132,155 L 132,157 L 133,158 L 133,159 L 134,160 L 134,161 L 135,162 L 135,163 L 137,165 L 137,166 L 138,167 L 138,168 L 140,170 L 140,171 L 143,174 L 143,175 L 156,188 L 157,188 L 160,191 L 161,191 L 163,193 L 164,193 L 165,194 L 166,194 L 167,195 L 168,195 L 169,196 L 170,196 L 171,197 L 172,197 L 173,198 L 175,198 L 176,199 L 178,199 L 179,200 L 181,200 L 182,201 L 185,201 L 186,202 L 192,202 L 193,203 L 205,203 L 206,202 L 212,202 L 213,201 L 216,201 L 217,200 L 220,200 L 221,199 L 223,199 L 224,198 L 225,198 L 226,197 L 227,197 L 228,196 L 229,196 L 230,195 L 231,195 L 232,194 L 233,194 L 234,193 L 235,193 L 237,191 L 238,191 L 240,189 L 241,189 L 246,184 L 247,184 L 251,180 L 251,179 L 256,174 L 256,173 L 258,171 L 258,170 L 260,168 L 260,167 L 262,165 L 262,164 L 263,163 L 263,162 L 264,161 L 264,160 L 265,159 L 265,158 L 266,157 L 266,156 L 267,155 L 267,154 L 268,153 L 268,151 L 269,150 L 269,148 L 270,147 L 270,145 L 271,144 L 271,141 L 272,140 L 272,137 L 273,136 L 273,130 L 274,129 L 274,105 L 273,104 L 273,99 L 272,98 L 272,94 L 271,93 L 271,91 L 270,90 L 270,87 L 269,86 L 269,84 L 268,83 L 268,82 L 267,81 L 267,80 L 266,79 L 266,77 L 265,76 L 265,75 L 264,74 L 264,73 L 263,72 L 263,71 L 262,70 L 262,69 L 260,67 L 260,66 L 258,64 L 258,63 L 254,59 L 254,58 L 243,47 L 242,47 L 239,44 L 238,44 L 236,42 L 235,42 L 234,41 L 233,41 L 231,39 L 230,39 L 229,38 L 227,38 L 226,37 L 225,37 L 224,36 L 223,36 L 222,35 L 219,35 L 218,34 L 216,34 L 215,33 L 211,33 L 210,32 Z" fill="#223D55" /></svg>