<?xml version="1.0" encoding="utf-8" ?>
<svg baseProfile="full" height="493" version="1.1" width="520" xmlns="http://www.w3.org/2000/svg" xmlns:ev="http://www.w3.org/2001/xml-events" xmlns:xlink="http://www.w3.org/1999/xlink"><defs /><path d="M 132,190 L 131,191 L 130,191 L 129,192 L 128,192 L 127,193 L 126,193 L 125,194 L 124,194 L 122,196 L 121,196 L 119,198 L 118,198 L 117,199 L 116,199 L 114,201 L 113,201 L 110,204 L 109,204 L 106,207 L 105,207 L 100,212 L 99,212 L 99,213 L 98,214 L 97,214 L 88,223 L 88,224 L 87,225 L 86,225 L 86,226 L 82,230 L 82,231 L 79,234 L 79,235 L 77,237 L 77,238 L 75,240 L 75,241 L 73,243 L 73,244 L 72,245 L 72,246 L 70,248 L 70,249 L 69,250 L 69,251 L 68,252 L 68,253 L 67,254 L 67,255 L 66,256 L 66,257 L 65,258 L 65,259 L 64,260 L 64,261 L 63,262 L 63,264 L 62,265 L 62,266 L 61,267 L 61,270 L 60,271 L 60,272 L 59,273 L 59,275 L 58,276 L 58,279 L 57,280 L 57,282 L 56,283 L 56,287 L 55,288 L 55,291 L 54,292 L 54,298 L 53,299 L 53,305 L 52,306 L 52,331 L 53,332 L 53,337 L 54,338 L 54,345 L 55,346 L 55,349 L 56,350 L 56,354 L 57,355 L 57,357 L 58,358 L 58,361 L 59,362 L 59,364 L 60,365 L 60,366 L 61,367 L 61,370 L 62,371 L 62,372 L 63,373 L 63,375 L 65,377 L 65,379 L 66,380 L 66,381 L 67,382 L 67,383 L 68,384 L 68,385 L 70,387 L 70,389 L 72,391 L 72,392 L 73,393 L 73,394 L 75,396 L 75,397 L 77,399 L 77,400 L 79,402 L 79,403 L 80,403 L 81,404 L 81,405 L 83,407 L 83,408 L 88,413 L 88,414 L 93,419 L 94,419 L 95,420 L 95,421 L 98,424 L 99,424 L 104,429 L 105,429 L 109,433 L 110,433 L 112,435 L 113,435 L 115,437 L 116,437 L 118,439 L 119,439 L 120,440 L 121,440 L 123,442 L 124,442 L 125,443 L 126,443 L 127,444 L 128,444 L 129,445 L 130,445 L 131,446 L 132,446 L 133,447 L 134,447 L 135,448 L 136,448 L 137,449 L 139,449 L 140,450 L 141,450 L 142,451 L 144,451 L 145,452 L 147,452 L 148,453 L 151,453 L 152,454 L 153,454 L 154,455 L 157,455 L 158,456 L 162,456 L 163,457 L 166,457 L 167,458 L 175,458 L 176,459 L 187,459 L 188,460 L 194,460 L 195,459 L 206,459 L 207,458 L 215,458 L 216,457 L 219,457 L 220,456 L 224,456 L 225,455 L 227,455 L 228,454 L 230,454 L 231,453 L 234,453 L 235,452 L 237,452 L 238,451 L 240,451 L 241,450 L 242,450 L 243,449 L 245,449 L 246,448 L 247,448 L 248,447 L 249,447 L 250,446 L 251,446 L 252,445 L 253,445 L 254,444 L 255,444 L 256,443 L 257,443 L 258,442 L 259,442 L 260,441 L 261,441 L 262,440 L 263,440 L 266,437 L 267,437 L 269,435 L 270,435 L 272,433 L 273,433 L 276,430 L 277,430 L 277,429 L 278,428 L 279,428 L 283,424 L 284,424 L 284,423 L 285,422 L 286,422 L 291,417 L 291,416 L 292,415 L 293,415 L 293,414 L 300,407 L 300,406 L 302,404 L 302,403 L 305,400 L 305,399 L 307,397 L 307,396 L 309,394 L 309,393 L 310,392 L 310,391 L 311,390 L 311,389 L 313,387 L 313,386 L 314,385 L 314,384 L 315,383 L 315,382 L 316,381 L 316,380 L 317,379 L 317,378 L 318,377 L 318,375 L 319,374 L 319,373 L 320,372 L 320,370 L 321,369 L 321,368 L 322,367 L 322,365 L 323,364 L 323,361 L 324,360 L 324,358 L 325,357 L 325,354 L 326,353 L 326,350 L 327,349 L 327,343 L 328,342 L 328,337 L 329,336 L 329,324 L 330,323 L 330,316 L 329,315 L 329,307 L 328,306 L 328,304 L 327,303 L 327,302 L 326,301 L 326,300 L 324,298 L 323,298 L 322,297 L 321,297 L 320,296 L 309,296 L 308,297 L 307,297 L 303,301 L 303,302 L 302,303 L 302,304 L 301,305 L 301,334 L 300,335 L 300,339 L 299,340 L 299,345 L 298,346 L 298,348 L 297,349 L 297,353 L 296,354 L 296,355 L 295,356 L 295,358 L 294,359 L 294,361 L 293,362 L 293,363 L 292,364 L 292,365 L 291,366 L 291,367 L 290,368 L 290,370 L 288,372 L 288,374 L 286,376 L 286,377 L 284,379 L 284,380 L 282,382 L 282,383 L 280,385 L 280,386 L 275,391 L 275,392 L 262,405 L 261,405 L 257,409 L 256,409 L 253,412 L 252,412 L 251,413 L 250,413 L 249,414 L 248,414 L 246,416 L 245,416 L 244,417 L 243,417 L 242,418 L 241,418 L 240,419 L 239,419 L 237,421 L 234,421 L 232,423 L 229,423 L 228,424 L 227,424 L 226,425 L 223,425 L 222,426 L 220,426 L 219,427 L 215,427 L 214,428 L 211,428 L 210,429 L 205,429 L 204,430 L 176,430 L 175,429 L 171,429 L 170,428 L 166,428 L 165,427 L 162,427 L 161,426 L 159,426 L 158,425 L 155,425 L 154,424 L 153,424 L 152,423 L 150,423 L 149,422 L 148,422 L 147,421 L 145,421 L 144,420 L 143,420 L 142,419 L 141,419 L 140,418 L 139,418 L 137,416 L 136,416 L 135,415 L 134,415 L 132,413 L 131,413 L 130,412 L 129,412 L 125,408 L 124,408 L 121,405 L 120,405 L 107,392 L 107,391 L 104,388 L 104,387 L 100,383 L 100,382 L 99,381 L 99,380 L 97,378 L 97,377 L 96,376 L 96,375 L 95,374 L 95,373 L 93,371 L 93,370 L 92,369 L 92,368 L 91,367 L 91,365 L 89,363 L 89,361 L 88,360 L 88,358 L 87,357 L 87,355 L 86,354 L 86,352 L 85,351 L 85,350 L 84,349 L 84,345 L 83,344 L 83,341 L 82,340 L 82,333 L 81,332 L 81,322 L 80,321 L 80,316 L 81,315 L 81,305 L 82,304 L 82,297 L 83,296 L 83,293 L 84,292 L 84,288 L 85,287 L 85,285 L 86,284 L 86,282 L 87,281 L 87,279 L 88,278 L 88,277 L 89,276 L 89,273 L 91,271 L 91,269 L 92,268 L 92,267 L 93,266 L 93,265 L 94,264 L 94,263 L 96,261 L 96,260 L 97,259 L 97,258 L 99,256 L 99,255 L 100,254 L 100,253 L 104,249 L 104,248 L 119,233 L 120,233 L 124,229 L 125,229 L 128,226 L 129,226 L 130,225 L 131,225 L 132,224 L 133,224 L 135,222 L 136,222 L 137,221 L 138,221 L 140,219 L 141,219 L 141,217 L 140,216 L 140,214 L 139,213 L 139,209 L 138,208 L 138,205 L 137,204 L 137,201 L 136,200 L 136,196 L 135,195 L 135,193 L 134,192 L 134,190 Z" fill="#223D55" /><path d="M 171,32 L 170,33 L 167,33 L 166,34 L 163,34 L 162,35 L 160,35 L 159,36 L 158,36 L 157,37 L 156,37 L 155,38 L 154,38 L 153,39 L 152,39 L 150,41 L 149,41 L 146,44 L 145,44 L 145,45 L 144,46 L 143,46 L 140,49 L 140,50 L 137,53 L 137,54 L 136,55 L 136,56 L 134,58 L 134,59 L 133,60 L 133,61 L 132,62 L 132,63 L 131,64 L 131,67 L 130,68 L 130,69 L 129,70 L 129,78 L 128,79 L 128,86 L 129,87 L 129,94 L 130,95 L 130,97 L 131,98 L 131,101 L 132,102 L 132,103 L 133,104 L 133,105 L 134,106 L 134,107 L 136,109 L 136,110 L 137,111 L 137,112 L 140,115 L 140,116 L 145,121 L 145,122 L 146,123 L 146,127 L 147,128 L 147,136 L 148,137 L 148,141 L 149,142 L 149,151 L 150,152 L 150,156 L 151,157 L 151,164 L 152,165 L 152,169 L 153,170 L 153,173 L 154,174 L 154,182 L 155,183 L 155,187 L 156,188 L 156,196 L 157,197 L 157,201 L 158,202 L 158,209 L 159,210 L 159,213 L 160,214 L 160,219 L 161,220 L 161,227 L 162,228 L 162,232 L 163,233 L 163,241 L 164,242 L 164,245 L 165,246 L 165,250 L 166,251 L 166,252 L 167,253 L 167,255 L 168,256 L 168,257 L 170,259 L 170,260 L 177,267 L 178,267 L 180,269 L 182,269 L 183,270 L 184,270 L 185,271 L 187,271 L 188,272 L 320,272 L 321,273 L 323,273 L 324,274 L 326,274 L 333,281 L 333,282 L 334,283 L 334,284 L 335,285 L 335,286 L 337,288 L 337,289 L 338,290 L 338,291 L 340,293 L 340,295 L 342,297 L 342,298 L 343,299 L 343,300 L 345,302 L 345,303 L 346,304 L 346,305 L 347,306 L 347,307 L 349,309 L 349,311 L 351,313 L 351,314 L 352,315 L 352,316 L 354,318 L 354,319 L 355,320 L 355,321 L 356,322 L 356,323 L 358,325 L 358,327 L 360,329 L 360,330 L 361,331 L 361,332 L 363,334 L 363,335 L 364,336 L 364,337 L 365,338 L 365,339 L 366,340 L 366,341 L 367,342 L 367,343 L 369,345 L 369,346 L 370,347 L 370,348 L 372,350 L 372,351 L 373,352 L 373,353 L 374,354 L 374,355 L 375,356 L 375,357 L 376,358 L 376,359 L 378,361 L 378,362 L 379,363 L 379,364 L 381,366 L 381,368 L 383,370 L 383,371 L 384,372 L 384,373 L 385,374 L 385,375 L 386,376 L 386,377 L 388,379 L 388,380 L 389,381 L 389,382 L 390,383 L 384,389 L 384,390 L 383,391 L 383,392 L 381,394 L 381,395 L 380,396 L 380,397 L 379,398 L 379,400 L 378,401 L 378,402 L 377,403 L 377,405 L 376,406 L 376,412 L 375,413 L 375,420 L 376,421 L 376,428 L 377,429 L 377,431 L 378,432 L 378,433 L 379,434 L 379,436 L 380,437 L 380,438 L 381,439 L 381,440 L 382,441 L 382,442 L 383,443 L 383,444 L 388,449 L 388,450 L 390,452 L 391,452 L 395,456 L 396,456 L 398,458 L 400,458 L 402,460 L 404,460 L 405,461 L 407,461 L 408,462 L 410,462 L 411,463 L 416,463 L 417,464 L 427,464 L 428,463 L 433,463 L 434,462 L 436,462 L 437,461 L 439,461 L 440,460 L 442,460 L 444,458 L 445,458 L 446,457 L 447,457 L 448,456 L 449,456 L 454,451 L 455,451 L 455,450 L 456,449 L 457,449 L 457,448 L 461,444 L 461,443 L 462,442 L 462,441 L 464,439 L 464,438 L 465,437 L 465,436 L 466,435 L 466,432 L 467,431 L 467,429 L 468,428 L 468,421 L 469,420 L 469,413 L 468,412 L 468,406 L 467,405 L 467,403 L 466,402 L 466,400 L 465,399 L 465,398 L 464,397 L 464,396 L 463,395 L 463,394 L 461,392 L 461,391 L 460,390 L 460,389 L 456,385 L 458,383 L 460,383 L 461,382 L 462,382 L 463,381 L 466,381 L 467,380 L 468,380 L 468,379 L 469,378 L 470,378 L 473,375 L 473,373 L 474,372 L 474,364 L 473,363 L 473,361 L 471,359 L 471,358 L 468,355 L 467,355 L 466,354 L 465,354 L 464,353 L 457,353 L 456,354 L 454,354 L 453,355 L 451,355 L 450,356 L 449,356 L 448,357 L 445,357 L 444,358 L 443,358 L 442,359 L 440,359 L 439,360 L 438,360 L 437,361 L 435,361 L 434,362 L 432,362 L 431,363 L 430,363 L 429,364 L 426,364 L 425,365 L 424,365 L 423,366 L 421,366 L 420,367 L 418,367 L 417,368 L 415,368 L 413,366 L 413,365 L 411,363 L 411,362 L 410,361 L 410,360 L 409,359 L 409,358 L 408,357 L 408,356 L 407,355 L 407,354 L 405,352 L 405,351 L 404,350 L 404,349 L 402,347 L 402,346 L 401,345 L 401,344 L 400,343 L 400,342 L 399,341 L 399,340 L 398,339 L 398,338 L 396,336 L 396,335 L 395,334 L 395,333 L 393,331 L 393,329 L 391,327 L 391,326 L 390,325 L 390,324 L 389,323 L 389,322 L 387,320 L 387,319 L 386,318 L 386,317 L 384,315 L 384,313 L 382,311 L 382,310 L 381,309 L 381,308 L 379,306 L 379,305 L 378,304 L 378,303 L 377,302 L 377,301 L 375,299 L 375,297 L 373,295 L 373,294 L 372,293 L 372,292 L 370,290 L 370,289 L 369,288 L 369,287 L 368,286 L 368,285 L 366,283 L 366,281 L 364,279 L 364,278 L 363,277 L 363,276 L 361,274 L 361,273 L 360,272 L 360,271 L 359,270 L 359,269 L 358,268 L 358,267 L 357,266 L 357,265 L 354,262 L 354,261 L 347,254 L 346,254 L 343,251 L 342,251 L 341,250 L 340,250 L 339,249 L 338,249 L 337,248 L 335,248 L 334,247 L 333,247 L 332,246 L 329,246 L 328,245 L 324,245 L 323,244 L 195,244 L 193,242 L 193,241 L 192,240 L 192,237 L 191,236 L 191,228 L 190,227 L 190,224 L 189,223 L 189,215 L 188,214 L 188,210 L 187,209 L 187,205 L 186,204 L 186,202 L 189,199 L 295,199 L 296,198 L 297,198 L 298,197 L 299,197 L 302,194 L 302,193 L 303,192 L 303,190 L 304,189 L 304,187 L 303,186 L 303,185 L 302,184 L 302,182 L 300,180 L 300,179 L 297,176 L 296,176 L 295,175 L 294,175 L 292,173 L 289,173 L 288,172 L 284,172 L 283,171 L 183,171 L 182,170 L 182,169 L 181,168 L 181,164 L 180,163 L 180,156 L 179,155 L 179,151 L 178,150 L 178,146 L 177,145 L 177,138 L 176,137 L 176,134 L 177,133 L 187,133 L 188,132 L 190,132 L 191,131 L 195,131 L 196,130 L 197,130 L 198,129 L 199,129 L 200,128 L 201,128 L 203,126 L 205,126 L 207,124 L 208,124 L 213,119 L 214,119 L 214,118 L 215,117 L 216,117 L 216,116 L 220,112 L 220,111 L 221,110 L 221,109 L 223,107 L 223,106 L 224,105 L 224,104 L 225,103 L 225,101 L 226,100 L 226,98 L 227,97 L 227,93 L 228,92 L 228,88 L 229,87 L 229,78 L 228,77 L 228,73 L 227,72 L 227,68 L 226,67 L 226,66 L 225,65 L 225,63 L 224,62 L 224,61 L 223,60 L 223,59 L 222,58 L 222,57 L 220,55 L 220,54 L 218,52 L 218,51 L 211,44 L 210,44 L 209,43 L 209,42 L 208,42 L 207,41 L 206,41 L 204,39 L 203,39 L 202,38 L 201,38 L 200,37 L 199,37 L 198,36 L 197,36 L 196,35 L 194,35 L 193,34 L 191,34 L 190,33 L 186,33 L 185,32 Z" fill="#223D55" /></svg>